<?xml version="1.0" encoding="iso-8859-1"?>
<!-- Generator: Adobe Illustrator 19.0.0, SVG Export Plug-In . SVG Version: 6.00 Build 0)  -->
<svg version="1.1" id="Layer_1" xmlns="http://www.w3.org/2000/svg" xmlns:xlink="http://www.w3.org/1999/xlink" x="0px" y="0px"
	 viewBox="0 0 512 512" style="enable-background:new 0 0 512 512;" xml:space="preserve">
<g>
	<g>
		<path d="M428.522,0H150.261c-46.03,0-83.478,37.448-83.478,83.478v328.348H16.696C7.475,411.826,0,419.301,0,428.522
			C0,474.552,37.448,512,83.478,512h211.478c46.03,0,83.478-37.448,83.478-83.478V100.174h116.87c9.22,0,16.696-7.475,16.696-16.696
			C512,37.448,474.552,0,428.522,0z M83.478,478.609c-21.767,0-40.336-13.956-47.226-33.391h176.906
			c2.513,12.33,7.755,23.68,15.062,33.391H83.478z M345.043,83.478v345.043c0,27.618-22.469,50.087-50.087,50.087
			c-27.618,0-50.087-22.469-50.087-50.087c0-9.22-7.475-16.696-16.696-16.696h-128V83.478c0-27.618,22.469-50.087,50.087-50.087
			h211.524C351.28,47.353,345.043,64.7,345.043,83.478z M381.295,66.783c6.891-19.435,25.46-33.391,47.226-33.391
			s40.336,13.956,47.226,33.391H381.295z"/>
	</g>
</g>
<g>
	<g>
		<circle cx="150.261" cy="116.87" r="16.696"/>
	</g>
</g>
<g>
	<g>
		<path d="M294.957,100.174h-77.913c-9.22,0-16.696,7.475-16.696,16.696s7.475,16.696,16.696,16.696h77.913
			c9.22,0,16.696-7.475,16.696-16.696S304.177,100.174,294.957,100.174z"/>
	</g>
</g>
<g>
	<g>
		<circle cx="150.261" cy="183.652" r="16.696"/>
	</g>
</g>
<g>
	<g>
		<path d="M294.957,166.957h-77.913c-9.22,0-16.696,7.475-16.696,16.696c0,9.22,7.475,16.696,16.696,16.696h77.913
			c9.22,0,16.696-7.475,16.696-16.696C311.652,174.432,304.177,166.957,294.957,166.957z"/>
	</g>
</g>
<g>
	<g>
		<circle cx="150.261" cy="250.435" r="16.696"/>
	</g>
</g>
<g>
	<g>
		<path d="M294.957,233.739h-77.913c-9.22,0-16.696,7.475-16.696,16.696c0,9.22,7.475,16.696,16.696,16.696h77.913
			c9.22,0,16.696-7.475,16.696-16.696C311.652,241.214,304.177,233.739,294.957,233.739z"/>
	</g>
</g>
<g>
	<g>
		<circle cx="150.261" cy="317.217" r="16.696"/>
	</g>
</g>
<g>
	<g>
		<path d="M294.957,300.522h-77.913c-9.22,0-16.696,7.475-16.696,16.696s7.475,16.696,16.696,16.696h77.913
			c9.22,0,16.696-7.475,16.696-16.696S304.177,300.522,294.957,300.522z"/>
	</g>
</g>
<g>
	<g>
		<path d="M510.238,209.577l-33.391-66.783c-6.14-12.28-23.721-12.29-29.866,0l-33.391,66.783c-1.16,2.318-1.763,4.874-1.763,7.466
			v244.87c0,27.618,22.469,50.087,50.087,50.087S512,489.531,512,461.913v-244.87C512,214.451,511.397,211.896,510.238,209.577z
			 M478.609,461.913c0,9.206-7.49,16.696-16.696,16.696s-16.696-7.49-16.696-16.696v-16.696h33.391V461.913z M478.609,411.826
			h-33.391V267.13h33.391V411.826z M478.609,233.739h-33.391v-12.754l16.696-33.391l16.696,33.391V233.739z"/>
	</g>
</g>
<g>
</g>
<g>
</g>
<g>
</g>
<g>
</g>
<g>
</g>
<g>
</g>
<g>
</g>
<g>
</g>
<g>
</g>
<g>
</g>
<g>
</g>
<g>
</g>
<g>
</g>
<g>
</g>
<g>
</g>
</svg>
