<svg width="48" height="48" viewBox="0 0 48 48" fill="none" xmlns="http://www.w3.org/2000/svg">
<circle cx="24" cy="24" r="19.5" stroke="#E0C5C4"/>
<path d="M29.3062 13.8309L28.9009 16.3785C28.3523 16.2956 27.7493 16.24 27.3204 16.24C26.5565 16.24 25.9614 16.4023 25.6139 16.8837C25.4503 17.1104 25.3746 17.3662 25.3366 17.6093C25.2989 17.8497 25.2936 18.1095 25.2936 18.3607V20.1361V20.6361H25.7936H28.8331L28.6056 23.3137H25.7936H25.2936V23.8137V34.5H21.8063V23.8137V23.3137H21.3063H19.5V20.6361H21.3063H21.8063V20.1361V17.8613C21.8063 16.3729 22.1565 15.311 22.8517 14.6157C23.5473 13.9201 24.6795 13.5 26.4477 13.5C27.5072 13.5 28.3179 13.6331 29.3062 13.8309Z" fill="#E0C5C4" stroke="#E0C5C4"/>
</svg>
