<svg width="1024" height="859" viewBox="0 0 1024 859" fill="none" xmlns="http://www.w3.org/2000/svg">
<path d="M484.021 739.997C378.848 679.275 283.799 525.154 379.858 358.775C475.917 192.396 637.729 41.2906 742.903 102.012C848.076 162.734 952.931 366.614 856.872 532.993C760.813 699.373 589.194 800.719 484.021 739.997Z" stroke="#E0C5C4" stroke-width="13"/>
<path d="M175.178 621.738C103.312 580.246 38.3646 474.934 104.003 361.246C169.641 247.557 280.208 144.306 352.074 185.798C423.939 227.289 495.588 366.602 429.95 480.29C364.312 593.979 247.044 663.229 175.178 621.738Z" stroke="#CBC7C2" stroke-width="13"/>
<path d="M469.589 699.475C370.769 642.421 281.149 498.154 370.703 343.041C460.258 187.928 611.522 47.2903 710.341 104.344C809.16 161.397 908.134 352.175 818.58 507.288C729.025 662.402 568.408 756.528 469.589 699.475Z" stroke="#E0C5C4" stroke-width="13"/>
<path d="M165.316 594.049C97.7918 555.064 36.5533 456.485 97.7467 350.495C158.94 244.505 262.3 148.406 329.824 187.391C397.348 226.376 464.977 356.736 403.784 462.726C342.591 568.716 232.84 633.034 165.316 594.049Z" stroke="#CBC7C2" stroke-width="13"/>
</svg>
