<svg width="1024" height="859" viewBox="0 0 1024 859" fill="none" xmlns="http://www.w3.org/2000/svg">
<path d="M539.979 118.698C645.152 179.42 740.201 333.541 644.142 499.921C548.083 666.3 386.271 817.405 281.097 756.683C175.924 695.961 71.0686 492.082 167.128 325.702C263.187 159.323 434.806 57.9764 539.979 118.698Z" stroke="#E0C5C4" stroke-width="13"/>
<path d="M848.822 236.958C920.688 278.45 985.635 383.762 919.997 497.45C854.359 611.138 743.792 714.389 671.926 672.898C600.061 631.406 528.412 492.094 594.05 378.405C659.688 264.717 776.956 195.466 848.822 236.958Z" stroke="#CBC7C2" stroke-width="13"/>
<path d="M554.411 159.221C653.231 216.274 742.851 360.541 653.297 515.655C563.742 670.768 412.478 811.405 313.659 754.352C214.84 697.299 115.866 506.521 205.42 351.407C294.975 196.294 455.592 102.168 554.411 159.221Z" stroke="#E0C5C4" stroke-width="13"/>
<path d="M858.684 264.647C926.208 303.632 987.447 402.21 926.253 508.201C865.06 614.191 761.7 710.289 694.176 671.304C626.652 632.319 559.023 501.959 620.216 395.969C681.409 289.979 791.16 225.662 858.684 264.647Z" stroke="#CBC7C2" stroke-width="13"/>
</svg>
