<svg width="40" height="40" viewBox="0 0 40 40" fill="none" xmlns="http://www.w3.org/2000/svg">
<circle cx="20" cy="20" r="19.5" fill="#E0C5C4" stroke="#E0C5C4"/>
<path fill-rule="evenodd" clip-rule="evenodd" d="M33 31H28.2V22.6012C28.2 20.2972 27.1836 19.0117 25.3608 19.0117C23.3772 19.0117 22.2 20.3512 22.2 22.6012V31H17.4V15.4H22.2V17.1543C22.2 17.1543 23.706 14.5117 27.0996 14.5117C30.4944 14.5117 33 16.5833 33 20.8697V31ZM11.9304 12.9051C11.5441 12.9037 11.1618 12.8263 10.8054 12.6771C10.449 12.528 10.1255 12.3098 9.85341 12.0355C9.58129 11.7613 9.36586 11.4362 9.21943 11.0787C9.073 10.7212 8.99845 10.3383 9.00002 9.95195C8.9986 9.56571 9.07327 9.18317 9.21977 8.82578C9.36627 8.46839 9.58172 8.14306 9.85384 7.86895C10.1259 7.59483 10.4494 7.37705 10.8057 7.22793C11.162 7.07881 11.5442 7.00142 11.9304 7C12.7103 7.00318 13.4569 7.31596 14.0062 7.86953C14.5555 8.42311 14.8625 9.1721 14.8596 9.95195C14.8614 10.3382 14.787 10.7212 14.6407 11.0787C14.4944 11.4362 14.279 11.7613 14.007 12.0355C13.735 12.3098 13.4116 12.5279 13.0552 12.6771C12.6989 12.8264 12.3167 12.9037 11.9304 12.9051ZM9.00002 31H15V15.4H9.00002V31Z" fill="white"/>
</svg>
