<svg width="48" height="48" viewBox="0 0 48 48" fill="none" xmlns="http://www.w3.org/2000/svg">
<circle cx="24" cy="24" r="19.5" stroke="#E0C5C4"/>
<path fill-rule="evenodd" clip-rule="evenodd" d="M36 34H31.2V25.6012C31.2 23.2972 30.1836 22.0117 28.3608 22.0117C26.3772 22.0117 25.2 23.3512 25.2 25.6012V34H20.4V18.4H25.2V20.1543C25.2 20.1543 26.706 17.5117 30.0996 17.5117C33.4944 17.5117 36 19.5833 36 23.8697V34ZM14.9304 15.9051C14.5441 15.9037 14.1618 15.8263 13.8054 15.6771C13.449 15.528 13.1255 15.3098 12.8534 15.0355C12.5813 14.7613 12.3659 14.4362 12.2194 14.0787C12.073 13.7212 11.9984 13.3383 12 12.952C11.9986 12.5657 12.0733 12.1832 12.2198 11.8258C12.3663 11.4684 12.5817 11.1431 12.8538 10.8689C13.1259 10.5948 13.4494 10.377 13.8057 10.2279C14.162 10.0788 14.5442 10.0014 14.9304 10C15.7103 10.0032 16.4569 10.316 17.0062 10.8695C17.5555 11.4231 17.8625 12.1721 17.8596 12.952C17.8614 13.3382 17.787 13.7212 17.6407 14.0787C17.4944 14.4362 17.279 14.7613 17.007 15.0355C16.735 15.3098 16.4116 15.5279 16.0552 15.6771C15.6989 15.8264 15.3167 15.9037 14.9304 15.9051ZM12 34H18V18.4H12V34Z" fill="#E0C5C4"/>
</svg>
