<svg width="52" height="46" viewBox="0 0 52 46" fill="none" xmlns="http://www.w3.org/2000/svg">
<path d="M12.1537 35.6192C11.825 33.1187 12.0202 30.4949 12.7082 28.1433C16.4668 15.2966 30.8696 11.5535 41.0928 19.3529C43.7217 21.3554 46.0631 24.1075 47.3622 27.4398C48.6613 30.7722 48.7948 34.7207 47.3057 37.596C45.8167 40.4714 42.587 41.9707 39.6961 40.6973C38.4997 40.1684 37.2417 39.2956 36.3432 38.3611C35.3779 37.3547 34.3971 36.3021 32.9286 36.1224C32.3022 36.0454 31.6603 36.1481 31.0596 36.3432C29.1392 36.9747 27.8453 38.3765 27.4499 40.3071C27.1213 41.9091 26.8081 43.7113 25.4628 44.7999C24.5437 45.5444 23.3832 45.837 22.2176 45.8627C16.1228 45.991 12.8776 41.1184 12.1537 35.6192Z" fill="#29C3BE"/>
<path d="M12.2413 5.40823C7.93847 8.53005 8.89866 15.8468 14.6033 16.4938C17.0217 16.7659 19.5377 15.4155 20.6417 13.2487C21.7457 11.0819 21.3606 8.24766 19.7174 6.45569C17.9152 4.48915 14.4801 3.78571 12.2413 5.40823Z" fill="#29C3BE"/>
<path d="M27.507 1.14625C23.2041 4.26807 24.1643 11.5848 29.8689 12.2318C32.2874 12.5039 34.8034 11.1535 35.9073 8.98674C37.0113 6.81995 36.6262 3.98566 34.9831 2.19369C33.1859 0.222014 29.7457 -0.481412 27.507 1.14625Z" fill="#29C3BE"/>
<path d="M42.9263 7.50269C39.1574 9.51544 39.4655 15.2148 43.2087 17.1506C45.9917 18.5882 49.8684 17.1762 51.0699 14.2803C53.2419 9.06359 47.491 5.0689 42.9263 7.50269Z" fill="#29C3BE"/>
<path d="M2.85008 18.7019C-0.918779 20.7147 -0.610697 26.414 3.13249 28.3497C5.91549 29.7874 9.79218 28.3754 10.9937 25.4795C13.1657 20.2628 7.41482 16.2681 2.85008 18.7019Z" fill="#29C3BE"/>
</svg>
