<svg width="29" height="20" viewBox="0 0 29 20" fill="none" xmlns="http://www.w3.org/2000/svg">
<path d="M25.1567 18.939C25.1893 18.9959 25.2056 19.0651 25.2056 19.1465C25.2056 19.2686 25.1608 19.3743 25.0713 19.4639C24.9899 19.5534 24.88 19.5981 24.7417 19.5981C24.6522 19.5981 24.5708 19.5778 24.4976 19.5371C24.4325 19.4964 24.3796 19.4354 24.3389 19.354C24.1842 19.0529 24.0459 18.6785 23.9238 18.231C23.8099 17.7752 23.7082 17.2707 23.6187 16.7173C23.5373 16.1639 23.4681 15.5698 23.4111 14.9351C23.3623 14.2922 23.3216 13.6289 23.2891 12.9453C22.6787 13.0267 21.991 13.1162 21.2261 13.2139C20.4692 13.3115 19.6025 13.4255 18.626 13.5557C17.9424 13.6533 17.2466 13.7388 16.5386 13.812C14.797 15.7082 12.9619 17.1486 11.0332 18.1333C9.11263 19.1099 7.18392 19.5981 5.24707 19.5981C4.38444 19.5981 3.63574 19.5127 3.00098 19.3418C2.37435 19.179 1.85352 18.9959 1.43848 18.7925C1.03158 18.5809 0.7264 18.3856 0.522949 18.2065C0.311361 18.0275 0.197428 17.9299 0.181152 17.9136C0.0997721 17.8322 0.059082 17.7264 0.059082 17.5962C0.059082 17.466 0.103841 17.3561 0.193359 17.2666C0.282878 17.1771 0.388672 17.1323 0.510742 17.1323C0.649089 17.1323 0.763021 17.1812 0.852539 17.2788C0.868815 17.2951 0.966471 17.3805 1.14551 17.5352C1.32454 17.6816 1.58903 17.8403 1.93896 18.0112C2.29704 18.1821 2.7487 18.3368 3.29395 18.4751C3.83919 18.6134 4.48617 18.6826 5.23486 18.6826C6.26025 18.6826 7.24089 18.5443 8.17676 18.2676C9.11263 17.9909 9.99561 17.6328 10.8257 17.1934C11.6639 16.7458 12.4411 16.2371 13.1572 15.6675C13.8815 15.0978 14.5366 14.52 15.1226 13.9341C14.5448 13.9829 13.971 14.0195 13.4014 14.0439C12.8317 14.0684 12.2702 14.0806 11.7168 14.0806C10.6263 14.0806 9.5887 14.0195 8.604 13.8975C7.6193 13.7754 6.7526 13.5719 6.00391 13.2871C5.25521 12.9941 4.65706 12.6076 4.20947 12.1274C3.77002 11.6473 3.55029 11.0492 3.55029 10.333C3.55029 10.0075 3.6154 9.68197 3.74561 9.35645C3.88395 9.03092 4.04671 8.73796 4.23389 8.47754C4.42106 8.20898 4.61637 7.99333 4.81982 7.83057C5.02327 7.65967 5.19824 7.57422 5.34473 7.57422C5.45866 7.57422 5.56445 7.61491 5.66211 7.69629C5.75977 7.77767 5.80859 7.88753 5.80859 8.02588C5.80859 8.09912 5.79232 8.17236 5.75977 8.24561C5.72721 8.31071 5.67839 8.36361 5.61328 8.4043C5.59701 8.42057 5.52783 8.47754 5.40576 8.5752C5.28369 8.67285 5.15348 8.80713 5.01514 8.97803C4.87679 9.14079 4.75065 9.34017 4.63672 9.57617C4.52279 9.80404 4.46582 10.0522 4.46582 10.3208C4.46582 10.7847 4.62451 11.1956 4.94189 11.5537C5.26742 11.9036 5.73535 12.2007 6.3457 12.4448C6.96419 12.6808 7.72103 12.8599 8.61621 12.9819C9.51139 13.104 10.5327 13.165 11.6802 13.165C12.3394 13.165 13.0352 13.1447 13.7676 13.104C14.5 13.0633 15.2731 13.0023 16.0869 12.9209C16.4775 12.4896 16.8234 12.0827 17.1245 11.7002C17.4256 11.3177 17.682 10.9759 17.8936 10.6748C18.2435 10.1784 18.6097 9.64941 18.9922 9.08789C19.3747 8.52637 19.7531 7.95671 20.1274 7.37891C20.5099 6.80111 20.8802 6.23145 21.2383 5.66992C21.6045 5.10026 21.9463 4.56722 22.2637 4.0708C22.5811 3.56624 22.8659 3.11051 23.1182 2.70361C23.3704 2.28857 23.578 1.94678 23.7407 1.67822C23.7896 1.4585 23.8628 1.25911 23.9604 1.08008C24.0581 0.892904 24.2168 0.799316 24.4365 0.799316C24.5586 0.799316 24.6766 0.852214 24.7905 0.958008C24.9045 1.05566 24.9614 1.1818 24.9614 1.33643C24.9614 1.45036 24.9207 1.57243 24.8394 1.70264C24.758 1.83285 24.6807 1.94271 24.6074 2.03223C24.583 2.18685 24.5423 2.51644 24.4854 3.021C24.4365 3.52555 24.3836 4.14404 24.3267 4.87646C24.2778 5.60075 24.2331 6.40234 24.1924 7.28125C24.1598 8.15202 24.1436 9.03499 24.1436 9.93018C24.1436 10.2638 24.1436 10.5934 24.1436 10.9189C24.1436 11.2445 24.1517 11.5741 24.168 11.9077C25.3887 11.7531 26.2798 11.6473 26.8413 11.5903C27.4028 11.5252 27.6999 11.4927 27.7324 11.4927C27.8382 11.4927 27.9399 11.5374 28.0376 11.627C28.1434 11.7083 28.1963 11.8182 28.1963 11.9565C28.1963 12.0705 28.1556 12.1722 28.0742 12.2617C28.001 12.3431 27.9033 12.3919 27.7812 12.4082C27.6348 12.4245 27.4639 12.4448 27.2686 12.4692C27.0732 12.4937 26.8332 12.5221 26.5483 12.5547C26.2635 12.5872 25.9299 12.6279 25.5474 12.6768C25.1649 12.7174 24.7173 12.7703 24.2046 12.8354C24.229 13.5028 24.2656 14.1457 24.3145 14.7642C24.3714 15.3745 24.4365 15.9442 24.5098 16.4731C24.5911 17.0021 24.6847 17.4782 24.7905 17.9014C24.8963 18.3245 25.0184 18.6704 25.1567 18.939ZM18.5039 12.6401C19.4642 12.5099 20.335 12.396 21.1162 12.2983C21.9056 12.1925 22.6177 12.099 23.2524 12.0176C23.2443 11.6676 23.2362 11.3177 23.228 10.9678C23.228 10.6178 23.228 10.2638 23.228 9.90576C23.228 8.7583 23.2484 7.66374 23.2891 6.62207C23.3298 5.57227 23.3867 4.66081 23.46 3.8877C23.1344 4.40039 22.7723 4.97005 22.3735 5.59668C21.9829 6.21517 21.576 6.84993 21.1528 7.50098C20.7297 8.14388 20.3024 8.78271 19.8711 9.41748C19.4398 10.0522 19.0288 10.6463 18.6382 11.1997C18.4429 11.4764 18.2435 11.745 18.04 12.0054C17.8366 12.2658 17.6331 12.5221 17.4297 12.7744C17.6087 12.7581 17.7837 12.7378 17.9546 12.7134C18.1336 12.689 18.3167 12.6646 18.5039 12.6401Z" fill="#E4ACA9"/>
</svg>
