<svg width="1794" height="1149" viewBox="0 0 1794 1149" fill="none" xmlns="http://www.w3.org/2000/svg">
<rect width="1794" height="1149" fill="url(#paint0_radial)"/>
<g filter="url(#filter0_i)">
<path d="M1474.75 379.963C1479.34 386.955 1481.51 390.668 1481.53 394.551C1481.56 402.22 1475.74 405.963 1467.88 405.996C1464.42 406.011 1462.18 406.016 1456.52 403.17C1456.52 403.17 1452.84 399.914 1444.27 400.287C1435.62 399.99 1431.97 403.316 1431.97 403.316C1426.33 406.209 1424.18 406.188 1420.72 406.203C1412.86 406.236 1407 402.547 1406.97 394.875C1406.96 390.992 1409.1 387.265 1413.62 380.229C1413.62 380.229 1422.18 366.22 1429.62 359.614C1435 354.848 1442.87 354.831 1442.87 354.831L1445.29 354.821L1445.29 354.819C1445.29 354.819 1453.51 354.764 1458.58 359.49C1465.85 366.271 1474.75 379.966 1474.75 379.963ZM1424.84 345.564C1433.06 345.529 1439.67 335.367 1439.62 322.869C1439.57 310.37 1432.86 300.265 1424.65 300.301C1416.43 300.336 1409.81 310.497 1409.87 322.996C1409.92 335.495 1416.62 345.599 1424.84 345.564ZM1410.68 367.544C1416.72 364.788 1418.06 355.104 1413.67 345.913C1409.27 336.722 1400.81 331.503 1394.77 334.256C1388.72 337.01 1387.39 346.696 1391.78 355.887C1396.17 365.078 1404.63 370.295 1410.68 367.544ZM1459.43 345.416C1467.64 345.381 1474.26 335.219 1474.21 322.721C1474.15 310.222 1467.45 300.117 1459.23 300.153C1451.02 300.188 1444.4 310.349 1444.45 322.848C1444.51 335.347 1451.21 345.451 1459.43 345.416ZM1489.4 333.849C1483.33 331.146 1474.92 336.437 1470.6 345.667C1466.29 354.898 1467.71 364.57 1473.78 367.274C1479.85 369.975 1488.26 364.684 1492.58 355.455C1496.9 346.227 1495.47 336.553 1489.4 333.849Z" fill="#FAD17F"/>
</g>
<g filter="url(#filter1_i)">
<path d="M1673.75 585.963C1678.34 592.955 1680.51 596.668 1680.53 600.551C1680.56 608.22 1674.74 611.963 1666.88 611.996C1663.42 612.011 1661.18 612.016 1655.52 609.17C1655.52 609.17 1651.84 605.914 1643.27 606.287C1634.62 605.99 1630.97 609.316 1630.97 609.316C1625.33 612.209 1623.18 612.188 1619.72 612.203C1611.86 612.236 1606 608.547 1605.97 600.875C1605.96 596.992 1608.1 593.265 1612.62 586.229C1612.62 586.229 1621.18 572.22 1628.62 565.614C1634 560.848 1641.87 560.831 1641.87 560.831L1644.29 560.821L1644.29 560.819C1644.29 560.819 1652.51 560.764 1657.58 565.49C1664.85 572.271 1673.75 585.966 1673.75 585.963ZM1623.84 551.564C1632.06 551.529 1638.67 541.367 1638.62 528.869C1638.57 516.37 1631.86 506.265 1623.65 506.301C1615.43 506.336 1608.81 516.497 1608.87 528.996C1608.92 541.495 1615.62 551.599 1623.84 551.564ZM1609.68 573.544C1615.72 570.788 1617.06 561.104 1612.67 551.913C1608.27 542.722 1599.81 537.503 1593.77 540.256C1587.72 543.01 1586.39 552.696 1590.78 561.887C1595.17 571.078 1603.63 576.295 1609.68 573.544ZM1658.43 551.416C1666.64 551.381 1673.26 541.219 1673.21 528.721C1673.15 516.222 1666.45 506.117 1658.23 506.153C1650.02 506.188 1643.4 516.349 1643.45 528.848C1643.51 541.347 1650.21 551.451 1658.43 551.416ZM1688.4 539.849C1682.33 537.146 1673.92 542.437 1669.6 551.667C1665.29 560.898 1666.71 570.57 1672.78 573.274C1678.85 575.975 1687.26 570.684 1691.58 561.455C1695.9 552.227 1694.47 542.553 1688.4 539.849Z" fill="#FAD584"/>
</g>
<g filter="url(#filter2_i)">
<path d="M1474.75 802.963C1479.34 809.955 1481.51 813.668 1481.53 817.551C1481.56 825.22 1475.74 828.963 1467.88 828.996C1464.42 829.011 1462.18 829.016 1456.52 826.17C1456.52 826.17 1452.84 822.914 1444.27 823.287C1435.62 822.99 1431.97 826.316 1431.97 826.316C1426.33 829.209 1424.18 829.188 1420.72 829.203C1412.86 829.236 1407 825.547 1406.97 817.875C1406.96 813.992 1409.1 810.265 1413.62 803.229C1413.62 803.229 1422.18 789.22 1429.62 782.614C1435 777.848 1442.87 777.831 1442.87 777.831L1445.29 777.821L1445.29 777.819C1445.29 777.819 1453.51 777.764 1458.58 782.49C1465.85 789.271 1474.75 802.966 1474.75 802.963ZM1424.84 768.564C1433.06 768.529 1439.67 758.367 1439.62 745.869C1439.57 733.37 1432.86 723.265 1424.65 723.301C1416.43 723.336 1409.81 733.497 1409.87 745.996C1409.92 758.495 1416.62 768.599 1424.84 768.564ZM1410.68 790.544C1416.72 787.788 1418.06 778.104 1413.67 768.913C1409.27 759.722 1400.81 754.503 1394.77 757.256C1388.72 760.01 1387.39 769.696 1391.78 778.887C1396.17 788.078 1404.63 793.295 1410.68 790.544ZM1459.43 768.416C1467.64 768.381 1474.26 758.219 1474.21 745.721C1474.15 733.222 1467.45 723.117 1459.23 723.153C1451.02 723.188 1444.4 733.349 1444.45 745.848C1444.51 758.347 1451.21 768.451 1459.43 768.416ZM1489.4 756.849C1483.33 754.146 1474.92 759.437 1470.6 768.667C1466.29 777.898 1467.71 787.57 1473.78 790.274C1479.85 792.975 1488.26 787.684 1492.58 778.455C1496.9 769.227 1495.47 759.553 1489.4 756.849Z" fill="#FCE6A1"/>
</g>
<g filter="url(#filter3_i)">
<path d="M1673.75 1060.96C1678.34 1067.96 1680.51 1071.67 1680.53 1075.55C1680.56 1083.22 1674.74 1086.96 1666.88 1087C1663.42 1087.01 1661.18 1087.02 1655.52 1084.17C1655.52 1084.17 1651.84 1080.91 1643.27 1081.29C1634.62 1080.99 1630.97 1084.32 1630.97 1084.32C1625.33 1087.21 1623.18 1087.19 1619.72 1087.2C1611.86 1087.24 1606 1083.55 1605.97 1075.87C1605.96 1071.99 1608.1 1068.26 1612.62 1061.23C1612.62 1061.23 1621.18 1047.22 1628.62 1040.61C1634 1035.85 1641.87 1035.83 1641.87 1035.83L1644.29 1035.82L1644.29 1035.82C1644.29 1035.82 1652.51 1035.76 1657.58 1040.49C1664.85 1047.27 1673.75 1060.97 1673.75 1060.96ZM1623.84 1026.56C1632.06 1026.53 1638.67 1016.37 1638.62 1003.87C1638.57 991.37 1631.86 981.265 1623.65 981.301C1615.43 981.336 1608.81 991.497 1608.87 1004C1608.92 1016.49 1615.62 1026.6 1623.84 1026.56ZM1609.68 1048.54C1615.72 1045.79 1617.06 1036.1 1612.67 1026.91C1608.27 1017.72 1599.81 1012.5 1593.77 1015.26C1587.72 1018.01 1586.39 1027.7 1590.78 1036.89C1595.17 1046.08 1603.63 1051.29 1609.68 1048.54ZM1658.43 1026.42C1666.64 1026.38 1673.26 1016.22 1673.21 1003.72C1673.15 991.222 1666.45 981.117 1658.23 981.153C1650.02 981.188 1643.4 991.349 1643.45 1003.85C1643.51 1016.35 1650.21 1026.45 1658.43 1026.42ZM1688.4 1014.85C1682.33 1012.15 1673.92 1017.44 1669.6 1026.67C1665.29 1035.9 1666.71 1045.57 1672.78 1048.27C1678.85 1050.98 1687.26 1045.68 1691.58 1036.46C1695.9 1027.23 1694.47 1017.55 1688.4 1014.85Z" fill="#FBE49F"/>
</g>
<g filter="url(#filter4_i)">
<path d="M1673.75 135.963C1678.34 142.955 1680.51 146.668 1680.53 150.551C1680.56 158.22 1674.74 161.963 1666.88 161.996C1663.42 162.011 1661.18 162.016 1655.52 159.17C1655.52 159.17 1651.84 155.914 1643.27 156.287C1634.62 155.99 1630.97 159.316 1630.97 159.316C1625.33 162.209 1623.18 162.188 1619.72 162.203C1611.86 162.236 1606 158.547 1605.97 150.875C1605.96 146.992 1608.1 143.265 1612.62 136.229C1612.62 136.229 1621.18 122.22 1628.62 115.614C1634 110.848 1641.87 110.831 1641.87 110.831L1644.29 110.821L1644.29 110.819C1644.29 110.819 1652.51 110.764 1657.58 115.49C1664.85 122.271 1673.75 135.966 1673.75 135.963ZM1623.84 101.564C1632.06 101.529 1638.67 91.3672 1638.62 78.8687C1638.57 66.3701 1631.86 56.2654 1623.65 56.3006C1615.43 56.3357 1608.81 66.4975 1608.87 78.996C1608.92 91.4946 1615.62 101.599 1623.84 101.564ZM1609.68 123.544C1615.72 120.788 1617.06 111.104 1612.67 101.913C1608.27 92.7223 1599.81 87.5032 1593.77 90.2565C1587.72 93.0097 1586.39 102.696 1590.78 111.887C1595.17 121.078 1603.63 126.295 1609.68 123.544ZM1658.43 101.416C1666.64 101.381 1673.26 91.2192 1673.21 78.7206C1673.15 66.2221 1666.45 56.1173 1658.23 56.1525C1650.02 56.1877 1643.4 66.3494 1643.45 78.848C1643.51 91.3465 1650.21 101.451 1658.43 101.416ZM1688.4 89.8492C1682.33 87.1456 1673.92 92.437 1669.6 101.667C1665.29 110.898 1666.71 120.57 1672.78 123.274C1678.85 125.975 1687.26 120.684 1691.58 111.455C1695.9 102.227 1694.47 92.5528 1688.4 89.8492Z" fill="#F8C264"/>
</g>
<defs>
<filter id="filter0_i" x="1389" y="300" width="106.336" height="108.522" filterUnits="userSpaceOnUse" color-interpolation-filters="sRGB">
<feFlood flood-opacity="0" result="BackgroundImageFix"/>
<feBlend mode="normal" in="SourceGraphic" in2="BackgroundImageFix" result="shape"/>
<feColorMatrix in="SourceAlpha" type="matrix" values="0 0 0 0 0 0 0 0 0 0 0 0 0 0 0 0 0 0 127 0" result="hardAlpha"/>
<feOffset dy="2.18543"/>
<feGaussianBlur stdDeviation="1.09271"/>
<feComposite in2="hardAlpha" operator="arithmetic" k2="-1" k3="1"/>
<feColorMatrix type="matrix" values="0 0 0 0 0 0 0 0 0 0 0 0 0 0 0 0 0 0 0.25 0"/>
<feBlend mode="normal" in2="shape" result="effect1_innerShadow"/>
</filter>
<filter id="filter1_i" x="1588" y="506" width="106.336" height="108.522" filterUnits="userSpaceOnUse" color-interpolation-filters="sRGB">
<feFlood flood-opacity="0" result="BackgroundImageFix"/>
<feBlend mode="normal" in="SourceGraphic" in2="BackgroundImageFix" result="shape"/>
<feColorMatrix in="SourceAlpha" type="matrix" values="0 0 0 0 0 0 0 0 0 0 0 0 0 0 0 0 0 0 127 0" result="hardAlpha"/>
<feOffset dy="2.18543"/>
<feGaussianBlur stdDeviation="1.09271"/>
<feComposite in2="hardAlpha" operator="arithmetic" k2="-1" k3="1"/>
<feColorMatrix type="matrix" values="0 0 0 0 0 0 0 0 0 0 0 0 0 0 0 0 0 0 0.25 0"/>
<feBlend mode="normal" in2="shape" result="effect1_innerShadow"/>
</filter>
<filter id="filter2_i" x="1389" y="723" width="106.336" height="108.522" filterUnits="userSpaceOnUse" color-interpolation-filters="sRGB">
<feFlood flood-opacity="0" result="BackgroundImageFix"/>
<feBlend mode="normal" in="SourceGraphic" in2="BackgroundImageFix" result="shape"/>
<feColorMatrix in="SourceAlpha" type="matrix" values="0 0 0 0 0 0 0 0 0 0 0 0 0 0 0 0 0 0 127 0" result="hardAlpha"/>
<feOffset dy="2.18543"/>
<feGaussianBlur stdDeviation="1.09271"/>
<feComposite in2="hardAlpha" operator="arithmetic" k2="-1" k3="1"/>
<feColorMatrix type="matrix" values="0 0 0 0 0 0 0 0 0 0 0 0 0 0 0 0 0 0 0.25 0"/>
<feBlend mode="normal" in2="shape" result="effect1_innerShadow"/>
</filter>
<filter id="filter3_i" x="1588" y="981" width="106.336" height="108.522" filterUnits="userSpaceOnUse" color-interpolation-filters="sRGB">
<feFlood flood-opacity="0" result="BackgroundImageFix"/>
<feBlend mode="normal" in="SourceGraphic" in2="BackgroundImageFix" result="shape"/>
<feColorMatrix in="SourceAlpha" type="matrix" values="0 0 0 0 0 0 0 0 0 0 0 0 0 0 0 0 0 0 127 0" result="hardAlpha"/>
<feOffset dy="2.18543"/>
<feGaussianBlur stdDeviation="1.09271"/>
<feComposite in2="hardAlpha" operator="arithmetic" k2="-1" k3="1"/>
<feColorMatrix type="matrix" values="0 0 0 0 0 0 0 0 0 0 0 0 0 0 0 0 0 0 0.25 0"/>
<feBlend mode="normal" in2="shape" result="effect1_innerShadow"/>
</filter>
<filter id="filter4_i" x="1588" y="56" width="106.336" height="108.522" filterUnits="userSpaceOnUse" color-interpolation-filters="sRGB">
<feFlood flood-opacity="0" result="BackgroundImageFix"/>
<feBlend mode="normal" in="SourceGraphic" in2="BackgroundImageFix" result="shape"/>
<feColorMatrix in="SourceAlpha" type="matrix" values="0 0 0 0 0 0 0 0 0 0 0 0 0 0 0 0 0 0 127 0" result="hardAlpha"/>
<feOffset dy="2.18543"/>
<feGaussianBlur stdDeviation="1.09271"/>
<feComposite in2="hardAlpha" operator="arithmetic" k2="-1" k3="1"/>
<feColorMatrix type="matrix" values="0 0 0 0 0 0 0 0 0 0 0 0 0 0 0 0 0 0 0.25 0"/>
<feBlend mode="normal" in2="shape" result="effect1_innerShadow"/>
</filter>
<radialGradient id="paint0_radial" cx="0" cy="0" r="1" gradientUnits="userSpaceOnUse" gradientTransform="translate(1999.5 -91.0002) rotate(151.986) scale(4916 7725.8)">
<stop stop-color="#F4A635"/>
<stop offset="0.15625" stop-color="#FCE6A2"/>
<stop offset="0.721609" stop-color="#EFC368"/>
</radialGradient>
</defs>
</svg>
