<svg width="50" height="63" viewBox="0 0 50 63" fill="none" xmlns="http://www.w3.org/2000/svg">
<path d="M43.1133 38.8975C43.168 38.9932 43.1953 39.1094 43.1953 39.2461C43.1953 39.4512 43.1201 39.6289 42.9697 39.7793C42.833 39.9297 42.6484 40.0049 42.416 40.0049C42.2656 40.0049 42.1289 39.9707 42.0059 39.9023C41.8965 39.834 41.8076 39.7314 41.7393 39.5947C41.4795 39.0889 41.2471 38.46 41.042 37.708C40.8506 36.9424 40.6797 36.0947 40.5293 35.165C40.3926 34.2354 40.2764 33.2373 40.1807 32.1709C40.0986 31.0908 40.0303 29.9766 39.9756 28.8281C38.9502 28.9648 37.7949 29.1152 36.5098 29.2793C35.2383 29.4434 33.7822 29.6348 32.1416 29.8535C30.9932 30.0176 29.8242 30.1611 28.6348 30.2842C25.709 33.4697 22.626 35.8896 19.3857 37.5439C16.1592 39.1846 12.9189 40.0049 9.66504 40.0049C8.21582 40.0049 6.95801 39.8613 5.8916 39.5742C4.83887 39.3008 3.96387 38.9932 3.2666 38.6514C2.58301 38.2959 2.07031 37.9678 1.72852 37.667C1.37305 37.3662 1.18164 37.2021 1.1543 37.1748C1.01758 37.0381 0.949219 36.8604 0.949219 36.6416C0.949219 36.4229 1.02441 36.2383 1.1748 36.0879C1.3252 35.9375 1.50293 35.8623 1.70801 35.8623C1.94043 35.8623 2.13184 35.9443 2.28223 36.1084C2.30957 36.1357 2.47363 36.2793 2.77441 36.5391C3.0752 36.7852 3.51953 37.0518 4.10742 37.3389C4.70898 37.626 5.46777 37.8857 6.38379 38.1182C7.2998 38.3506 8.38672 38.4668 9.64453 38.4668C11.3672 38.4668 13.0146 38.2344 14.5869 37.7695C16.1592 37.3047 17.6426 36.7031 19.0371 35.9648C20.4453 35.2129 21.751 34.3584 22.9541 33.4014C24.1709 32.4443 25.2715 31.4736 26.2559 30.4893C25.2852 30.5713 24.3213 30.6328 23.3643 30.6738C22.4072 30.7148 21.4639 30.7354 20.5342 30.7354C18.7021 30.7354 16.959 30.6328 15.3047 30.4277C13.6504 30.2227 12.1943 29.8809 10.9365 29.4023C9.67871 28.9102 8.67383 28.2607 7.92188 27.4541C7.18359 26.6475 6.81445 25.6426 6.81445 24.4395C6.81445 23.8926 6.92383 23.3457 7.14258 22.7988C7.375 22.252 7.64844 21.7598 7.96289 21.3223C8.27734 20.8711 8.60547 20.5088 8.94727 20.2354C9.28906 19.9482 9.58301 19.8047 9.8291 19.8047C10.0205 19.8047 10.1982 19.873 10.3623 20.0098C10.5264 20.1465 10.6084 20.3311 10.6084 20.5635C10.6084 20.6865 10.5811 20.8096 10.5264 20.9326C10.4717 21.042 10.3896 21.1309 10.2803 21.1992C10.2529 21.2266 10.1367 21.3223 9.93164 21.4863C9.72656 21.6504 9.50781 21.876 9.27539 22.1631C9.04297 22.4365 8.83105 22.7715 8.63965 23.168C8.44824 23.5508 8.35254 23.9678 8.35254 24.4189C8.35254 25.1982 8.61914 25.8887 9.15234 26.4902C9.69922 27.0781 10.4854 27.5771 11.5107 27.9873C12.5498 28.3838 13.8213 28.6846 15.3252 28.8896C16.8291 29.0947 18.5449 29.1973 20.4727 29.1973C21.5801 29.1973 22.749 29.1631 23.9795 29.0947C25.21 29.0264 26.5088 28.9238 27.876 28.7871C28.5322 28.0625 29.1133 27.3789 29.6191 26.7363C30.125 26.0938 30.5557 25.5195 30.9111 25.0137C31.499 24.1797 32.1143 23.291 32.7568 22.3477C33.3994 21.4043 34.0352 20.4473 34.6641 19.4766C35.3066 18.5059 35.9287 17.5488 36.5303 16.6055C37.1455 15.6484 37.7197 14.7529 38.2529 13.9189C38.7861 13.0713 39.2646 12.3057 39.6885 11.6221C40.1123 10.9248 40.4609 10.3506 40.7344 9.89941C40.8164 9.53027 40.9395 9.19531 41.1035 8.89453C41.2676 8.58008 41.5342 8.42285 41.9033 8.42285C42.1084 8.42285 42.3066 8.51172 42.498 8.68945C42.6895 8.85352 42.7852 9.06543 42.7852 9.3252C42.7852 9.5166 42.7168 9.72168 42.5801 9.94043C42.4434 10.1592 42.3135 10.3438 42.1904 10.4941C42.1494 10.7539 42.0811 11.3076 41.9854 12.1553C41.9033 13.0029 41.8145 14.042 41.7188 15.2725C41.6367 16.4893 41.5615 17.8359 41.4932 19.3125C41.4385 20.7754 41.4111 22.2588 41.4111 23.7627C41.4111 24.3232 41.4111 24.877 41.4111 25.4238C41.4111 25.9707 41.4248 26.5244 41.4521 27.085C43.5029 26.8252 45 26.6475 45.9434 26.5518C46.8867 26.4424 47.3857 26.3877 47.4404 26.3877C47.6182 26.3877 47.7891 26.4629 47.9531 26.6133C48.1309 26.75 48.2197 26.9346 48.2197 27.167C48.2197 27.3584 48.1514 27.5293 48.0146 27.6797C47.8916 27.8164 47.7275 27.8984 47.5225 27.9258C47.2764 27.9531 46.9893 27.9873 46.6611 28.0283C46.333 28.0693 45.9297 28.1172 45.4512 28.1719C44.9727 28.2266 44.4121 28.2949 43.7695 28.377C43.127 28.4453 42.375 28.5342 41.5137 28.6436C41.5547 29.7646 41.6162 30.8447 41.6982 31.8838C41.7939 32.9092 41.9033 33.8662 42.0264 34.7549C42.1631 35.6436 42.3203 36.4434 42.498 37.1543C42.6758 37.8652 42.8809 38.4463 43.1133 38.8975ZM31.9365 28.3154C33.5498 28.0967 35.0127 27.9053 36.3252 27.7412C37.6514 27.5635 38.8477 27.4062 39.9141 27.2695C39.9004 26.6816 39.8867 26.0938 39.873 25.5059C39.873 24.918 39.873 24.3232 39.873 23.7217C39.873 21.7939 39.9072 19.9551 39.9756 18.2051C40.0439 16.4414 40.1396 14.9102 40.2627 13.6113C39.7158 14.4727 39.1074 15.4297 38.4375 16.4824C37.7812 17.5215 37.0977 18.5879 36.3867 19.6816C35.6758 20.7617 34.958 21.835 34.2334 22.9014C33.5088 23.9678 32.8184 24.9658 32.1621 25.8955C31.834 26.3604 31.499 26.8115 31.1572 27.249C30.8154 27.6865 30.4736 28.1172 30.1318 28.541C30.4326 28.5137 30.7266 28.4795 31.0137 28.4385C31.3145 28.3975 31.6221 28.3564 31.9365 28.3154Z" fill="#FBA29F"/>
<path d="M44.1133 40.8975C44.168 40.9932 44.1953 41.1094 44.1953 41.2461C44.1953 41.4512 44.1201 41.6289 43.9697 41.7793C43.833 41.9297 43.6484 42.0049 43.416 42.0049C43.2656 42.0049 43.1289 41.9707 43.0059 41.9023C42.8965 41.834 42.8076 41.7314 42.7393 41.5947C42.4795 41.0889 42.2471 40.46 42.042 39.708C41.8506 38.9424 41.6797 38.0947 41.5293 37.165C41.3926 36.2354 41.2764 35.2373 41.1807 34.1709C41.0986 33.0908 41.0303 31.9766 40.9756 30.8281C39.9502 30.9648 38.7949 31.1152 37.5098 31.2793C36.2383 31.4434 34.7822 31.6348 33.1416 31.8535C31.9932 32.0176 30.8242 32.1611 29.6348 32.2842C26.709 35.4697 23.626 37.8896 20.3857 39.5439C17.1592 41.1846 13.9189 42.0049 10.665 42.0049C9.21582 42.0049 7.95801 41.8613 6.8916 41.5742C5.83887 41.3008 4.96387 40.9932 4.2666 40.6514C3.58301 40.2959 3.07031 39.9678 2.72852 39.667C2.37305 39.3662 2.18164 39.2021 2.1543 39.1748C2.01758 39.0381 1.94922 38.8604 1.94922 38.6416C1.94922 38.4229 2.02441 38.2383 2.1748 38.0879C2.3252 37.9375 2.50293 37.8623 2.70801 37.8623C2.94043 37.8623 3.13184 37.9443 3.28223 38.1084C3.30957 38.1357 3.47363 38.2793 3.77441 38.5391C4.0752 38.7852 4.51953 39.0518 5.10742 39.3389C5.70898 39.626 6.46777 39.8857 7.38379 40.1182C8.2998 40.3506 9.38672 40.4668 10.6445 40.4668C12.3672 40.4668 14.0146 40.2344 15.5869 39.7695C17.1592 39.3047 18.6426 38.7031 20.0371 37.9648C21.4453 37.2129 22.751 36.3584 23.9541 35.4014C25.1709 34.4443 26.2715 33.4736 27.2559 32.4893C26.2852 32.5713 25.3213 32.6328 24.3643 32.6738C23.4072 32.7148 22.4639 32.7354 21.5342 32.7354C19.7021 32.7354 17.959 32.6328 16.3047 32.4277C14.6504 32.2227 13.1943 31.8809 11.9365 31.4023C10.6787 30.9102 9.67383 30.2607 8.92188 29.4541C8.18359 28.6475 7.81445 27.6426 7.81445 26.4395C7.81445 25.8926 7.92383 25.3457 8.14258 24.7988C8.375 24.252 8.64844 23.7598 8.96289 23.3223C9.27734 22.8711 9.60547 22.5088 9.94727 22.2354C10.2891 21.9482 10.583 21.8047 10.8291 21.8047C11.0205 21.8047 11.1982 21.873 11.3623 22.0098C11.5264 22.1465 11.6084 22.3311 11.6084 22.5635C11.6084 22.6865 11.5811 22.8096 11.5264 22.9326C11.4717 23.042 11.3896 23.1309 11.2803 23.1992C11.2529 23.2266 11.1367 23.3223 10.9316 23.4863C10.7266 23.6504 10.5078 23.876 10.2754 24.1631C10.043 24.4365 9.83105 24.7715 9.63965 25.168C9.44824 25.5508 9.35254 25.9678 9.35254 26.4189C9.35254 27.1982 9.61914 27.8887 10.1523 28.4902C10.6992 29.0781 11.4854 29.5771 12.5107 29.9873C13.5498 30.3838 14.8213 30.6846 16.3252 30.8896C17.8291 31.0947 19.5449 31.1973 21.4727 31.1973C22.5801 31.1973 23.749 31.1631 24.9795 31.0947C26.21 31.0264 27.5088 30.9238 28.876 30.7871C29.5322 30.0625 30.1133 29.3789 30.6191 28.7363C31.125 28.0938 31.5557 27.5195 31.9111 27.0137C32.499 26.1797 33.1143 25.291 33.7568 24.3477C34.3994 23.4043 35.0352 22.4473 35.6641 21.4766C36.3066 20.5059 36.9287 19.5488 37.5303 18.6055C38.1455 17.6484 38.7197 16.7529 39.2529 15.9189C39.7861 15.0713 40.2646 14.3057 40.6885 13.6221C41.1123 12.9248 41.4609 12.3506 41.7344 11.8994C41.8164 11.5303 41.9395 11.1953 42.1035 10.8945C42.2676 10.5801 42.5342 10.4229 42.9033 10.4229C43.1084 10.4229 43.3066 10.5117 43.498 10.6895C43.6895 10.8535 43.7852 11.0654 43.7852 11.3252C43.7852 11.5166 43.7168 11.7217 43.5801 11.9404C43.4434 12.1592 43.3135 12.3438 43.1904 12.4941C43.1494 12.7539 43.0811 13.3076 42.9854 14.1553C42.9033 15.0029 42.8145 16.042 42.7188 17.2725C42.6367 18.4893 42.5615 19.8359 42.4932 21.3125C42.4385 22.7754 42.4111 24.2588 42.4111 25.7627C42.4111 26.3232 42.4111 26.877 42.4111 27.4238C42.4111 27.9707 42.4248 28.5244 42.4521 29.085C44.5029 28.8252 46 28.6475 46.9434 28.5518C47.8867 28.4424 48.3857 28.3877 48.4404 28.3877C48.6182 28.3877 48.7891 28.4629 48.9531 28.6133C49.1309 28.75 49.2197 28.9346 49.2197 29.167C49.2197 29.3584 49.1514 29.5293 49.0146 29.6797C48.8916 29.8164 48.7275 29.8984 48.5225 29.9258C48.2764 29.9531 47.9893 29.9873 47.6611 30.0283C47.333 30.0693 46.9297 30.1172 46.4512 30.1719C45.9727 30.2266 45.4121 30.2949 44.7695 30.377C44.127 30.4453 43.375 30.5342 42.5137 30.6436C42.5547 31.7646 42.6162 32.8447 42.6982 33.8838C42.7939 34.9092 42.9033 35.8662 43.0264 36.7549C43.1631 37.6436 43.3203 38.4434 43.498 39.1543C43.6758 39.8652 43.8809 40.4463 44.1133 40.8975ZM32.9365 30.3154C34.5498 30.0967 36.0127 29.9053 37.3252 29.7412C38.6514 29.5635 39.8477 29.4062 40.9141 29.2695C40.9004 28.6816 40.8867 28.0938 40.873 27.5059C40.873 26.918 40.873 26.3232 40.873 25.7217C40.873 23.7939 40.9072 21.9551 40.9756 20.2051C41.0439 18.4414 41.1396 16.9102 41.2627 15.6113C40.7158 16.4727 40.1074 17.4297 39.4375 18.4824C38.7812 19.5215 38.0977 20.5879 37.3867 21.6816C36.6758 22.7617 35.958 23.835 35.2334 24.9014C34.5088 25.9678 33.8184 26.9658 33.1621 27.8955C32.834 28.3604 32.499 28.8115 32.1572 29.249C31.8154 29.6865 31.4736 30.1172 31.1318 30.541C31.4326 30.5137 31.7266 30.4795 32.0137 30.4385C32.3145 30.3975 32.6221 30.3564 32.9365 30.3154Z" fill="#D98380"/>
</svg>
