<?xml version="1.0" encoding="iso-8859-1"?>
<!-- Generator: Adobe Illustrator 18.0.0, SVG Export Plug-In . SVG Version: 6.00 Build 0)  -->
<!DOCTYPE svg PUBLIC "-//W3C//DTD SVG 1.1//EN" "http://www.w3.org/Graphics/SVG/1.1/DTD/svg11.dtd">
<svg version="1.1" id="Capa_1" xmlns="http://www.w3.org/2000/svg" xmlns:xlink="http://www.w3.org/1999/xlink" x="0px" y="0px"
	 viewBox="0 0 296.421 296.421" style="enable-background:new 0 0 296.421 296.421;" xml:space="preserve">
<g>
	<path d="M225.607,211.067H193.48V7.5c0-4.143-3.357-7.5-7.5-7.5H14.708c-4.143,0-7.5,3.357-7.5,7.5v249.324
		c0,4.143,3.357,7.5,7.5,7.5h80.373v24.597c0,4.142,3.357,7.5,7.5,7.5h123.025c4.143,0,7.5-3.358,7.5-7.5v-70.354
		C233.107,214.425,229.749,211.067,225.607,211.067z M178.48,15v37.768H22.208V15H178.48z M95.081,218.567v30.757H22.208V67.768
		H178.48v143.3h-75.898C98.439,211.067,95.081,214.425,95.081,218.567z M218.107,281.421H110.081v-55.354h108.025V281.421z"/>
	<path d="M46.663,46.047c6.559,0,11.894-5.337,11.894-11.896c0-6.561-5.336-11.897-11.894-11.897
		c-6.557,0-11.892,5.337-11.892,11.897C34.771,40.71,40.106,46.047,46.663,46.047z M46.663,31.047c1.714,0,3.108,1.393,3.108,3.104
		c0,1.711-1.395,3.103-3.108,3.103c-1.712,0-3.106-1.392-3.106-3.103C43.557,32.439,44.951,31.047,46.663,31.047z"/>
	<path d="M133.34,265.642c6.56,0,11.895-5.337,11.895-11.897c0-6.561-5.336-11.898-11.895-11.898s-11.896,5.338-11.896,11.898
		C121.445,260.306,126.781,265.642,133.34,265.642z M133.34,250.643c1.712,0,3.104,1.392,3.104,3.103
		c0,1.71-1.393,3.101-3.104,3.101s-3.105-1.392-3.105-3.101C130.236,252.034,131.628,250.643,133.34,250.643z"/>
	<path d="M281.712,0.679h-38.531c-4.143,0-7.5,3.357-7.5,7.5v189.418c0,1.163,0.27,2.312,0.791,3.352l19.264,38.558
		c1.27,2.542,3.867,4.148,6.709,4.148c2.841,0,5.439-1.605,6.709-4.147l19.268-38.558c0.521-1.041,0.791-2.189,0.791-3.353V8.179
		C289.212,4.036,285.855,0.679,281.712,0.679z M262.445,58.972c6,0,10.964-4.471,11.768-10.255v141.38h-23.531V48.736
		C251.494,54.511,256.452,58.972,262.445,58.972z M259.339,47.074c0-1.711,1.394-3.103,3.105-3.103c1.713,0,3.106,1.392,3.106,3.103
		c0,1.711-1.393,3.103-3.106,3.103C260.733,50.177,259.339,48.785,259.339,47.074z M274.212,15.679v29.753
		c-0.804-5.784-5.768-10.255-11.768-10.255c-5.993,0-10.951,4.461-11.764,10.235V15.679H274.212z M262.446,219.375l-7.134-14.278
		h14.269L262.446,219.375z"/>
</g>
<g>
</g>
<g>
</g>
<g>
</g>
<g>
</g>
<g>
</g>
<g>
</g>
<g>
</g>
<g>
</g>
<g>
</g>
<g>
</g>
<g>
</g>
<g>
</g>
<g>
</g>
<g>
</g>
<g>
</g>
</svg>
