<svg id="Layer_1" enable-background="new 0 0 508.16 508.16" height="512" viewBox="0 0 508.16 508.16" width="512" xmlns="http://www.w3.org/2000/svg"><g><path d="m386.188 2.786c-8.679-5.389-20.085-2.723-25.476 5.958l-82.218 132.405c-14.559 0-32.812 0-48.829 0l-82.218-132.406c-5.39-8.68-16.796-11.346-25.476-5.958-8.68 5.39-11.347 16.796-5.957 25.476 35.925 57.669 90.284 144.611 90.284 144.611s0 313.661 0 313.788c0 11.874 9.476 21.5 21.35 21.5s21.5-9.626 21.5-21.5v-172.578h9.503v172.578c0 11.874 9.626 21.5 21.5 21.5s21.55-9.626 21.55-21.5v-313.827s53.404-85.109 90.444-144.571c5.39-8.68 2.723-20.086-5.957-25.476zm-132.531 231.008s-37.29-21.43-37.29-41.014c0-20.806 28.384-27.227 37.29-8.326 8.904-18.897 37.29-12.484 37.29 8.326 0 20.736-37.29 41.014-37.29 41.014z"/><circle cx="253.657" cy="92.48" r="37.29"/></g></svg>