<svg width="845" height="596" viewBox="0 0 845 596" fill="none" xmlns="http://www.w3.org/2000/svg">
<path d="M431.393 594C456.798 594 477.393 573.405 477.393 548C477.393 522.595 456.798 502 431.393 502C405.988 502 385.393 522.595 385.393 548C385.393 573.405 405.988 594 431.393 594Z" fill="#49453A" fill-opacity="0.28"/>
<path d="M706.199 591.416C731.934 583.687 759.293 575.628 779.703 557.255C797.94 540.836 810.253 515.766 802.697 491.143C795.157 466.571 772.573 450.187 749.256 442.038C736.031 437.416 722.195 434.852 708.364 432.837C693.329 430.648 678.228 428.854 663.134 427.127C602.016 420.137 540.668 415.867 479.09 414.316C448.706 413.551 418.327 413.57 387.938 414.011C360.798 414.405 332.216 414.395 307.039 402.86C287.46 393.89 269.691 377.571 264.235 356.127C257.938 331.372 269.553 306.163 286.215 288.235C294.998 278.784 305.263 270.831 315.852 263.517C327.339 255.583 339.227 248.211 351.372 241.329C375.293 227.782 400.302 216.252 426.139 206.861C438.885 202.226 451.82 198.228 464.867 194.539C475.884 191.424 486.935 188.305 497.583 184.062C518.166 175.858 537.744 161.962 542.977 139.18C547.937 117.589 539.574 94.1495 524.912 78.1096C507.949 59.5526 482.373 51.4178 457.852 50.1016C430.324 48.624 403.43 55.5136 377.555 64.2575C349.959 73.5835 322.957 84.3067 294.777 91.8607C266.833 99.3441 238.348 104.639 209.581 107.697C195.499 109.197 180.991 110.89 166.825 109.742C154.953 108.78 143.141 105.288 134.391 96.8623C126.888 89.6376 122.419 79.7083 123.956 69.23C124.235 67.3268 127.126 68.1359 126.849 70.0275C124.978 82.7826 133.648 94.5361 144.333 100.557C156.681 107.515 171.707 107.525 185.454 106.729C215.263 104.928 244.871 100.648 273.969 93.9332C302.561 87.4026 330.133 78.0668 357.673 68.0941C383.829 58.6226 410.57 49.3783 438.513 47.3268C462.759 45.5467 488.265 49.079 509.387 61.7499C527.951 72.8859 541.602 91.4572 545.952 112.768C550.202 133.593 544.315 154.553 528.552 169.085C512.23 184.132 489.851 190.564 468.995 196.489C442.543 204.003 416.658 212.787 391.603 224.192C366.206 235.72 341.85 249.413 318.803 265.12C296.556 280.322 274.602 299.451 267.566 326.571C264.289 339.204 264.894 352.603 270.378 364.536C275.254 375.146 283.284 384.071 292.639 390.954C314.96 407.379 343.092 410.751 370.054 411.087C400.335 411.463 430.617 410.441 460.909 410.939C522.641 411.952 584.247 415.709 645.727 422.211C661.133 423.842 676.518 425.644 691.885 427.618C705.706 429.394 719.575 431.159 733.163 434.313C757.326 439.921 780.837 450.705 795.855 471.191C802.52 480.071 806.65 490.594 807.802 501.637C808.854 513.161 806.032 524.706 800.822 534.958C789.29 557.648 767.688 572.081 744.749 581.562C732.462 586.641 719.717 590.488 706.997 594.309C705.144 594.865 704.352 591.97 706.2 591.416L706.199 591.416Z" fill="#F2F2F2"/>
<path d="M125.893 93.5C139.148 93.5 149.893 82.7548 149.893 69.5C149.893 56.2452 139.148 45.5 125.893 45.5C112.638 45.5 101.893 56.2452 101.893 69.5C101.893 82.7548 112.638 93.5 125.893 93.5Z" fill="#F2F2F2"/>
<path d="M292.393 139C305.648 139 316.393 128.255 316.393 115C316.393 101.745 305.648 91 292.393 91C279.138 91 268.393 101.745 268.393 115C268.393 128.255 279.138 139 292.393 139Z" fill="#F2F2F2"/>
<path d="M433.393 48C446.648 48 457.393 37.2548 457.393 24C457.393 10.7452 446.648 0 433.393 0C420.138 0 409.393 10.7452 409.393 24C409.393 37.2548 420.138 48 433.393 48Z" fill="#F2F2F2"/>
<path d="M521.393 150C534.648 150 545.393 139.255 545.393 126C545.393 112.745 534.648 102 521.393 102C508.138 102 497.393 112.745 497.393 126C497.393 139.255 508.138 150 521.393 150Z" fill="#F2F2F2"/>
<path d="M402.393 268C415.648 268 426.393 257.255 426.393 244C426.393 230.745 415.648 220 402.393 220C389.138 220 378.393 230.745 378.393 244C378.393 257.255 389.138 268 402.393 268Z" fill="#F2F2F2"/>
<path d="M251.393 325C264.648 325 275.393 314.255 275.393 301C275.393 287.745 264.648 277 251.393 277C238.138 277 227.393 287.745 227.393 301C227.393 314.255 238.138 325 251.393 325Z" fill="#F2F2F2"/>
<path d="M411.393 414C424.648 414 435.393 403.255 435.393 390C435.393 376.745 424.648 366 411.393 366C398.138 366 387.393 376.745 387.393 390C387.393 403.255 398.138 414 411.393 414Z" fill="#F2F2F2"/>
<path d="M583.393 464C596.648 464 607.393 453.255 607.393 440C607.393 426.745 596.648 416 583.393 416C570.138 416 559.393 426.745 559.393 440C559.393 453.255 570.138 464 583.393 464Z" fill="#F2F2F2"/>
<path d="M784.393 453C797.648 453 808.393 442.255 808.393 429C808.393 415.745 797.648 405 784.393 405C771.138 405 760.393 415.745 760.393 429C760.393 442.255 771.138 453 784.393 453Z" fill="#F2F2F2"/>
<path d="M426.465 68.0035C354.573 68.5113 295.709 126.933 294.688 198.82C294.678 199.484 294.674 204.15 294.675 210.254C294.675 219.204 298.23 227.786 304.558 234.115C310.886 240.443 319.469 243.999 328.418 244H328.419C332.855 243.999 337.248 243.124 341.346 241.425C345.444 239.725 349.167 237.235 352.302 234.097C355.437 230.958 357.923 227.232 359.618 223.132C361.313 219.032 362.184 214.639 362.18 210.202C362.176 206.05 362.174 203.176 362.174 203C362.172 191.89 365.062 180.971 370.559 171.316C376.057 161.662 383.973 153.605 393.529 147.938C403.085 142.271 413.952 139.189 425.06 138.996C436.168 138.803 447.136 141.504 456.883 146.835C466.631 152.166 474.823 159.942 480.653 169.399C486.484 178.856 489.752 189.668 490.137 200.771C490.521 211.875 488.009 222.887 482.846 232.725C477.684 242.563 470.05 250.887 460.694 256.879L460.706 256.894C460.706 256.894 412.678 287.813 398.035 330.229L398.048 330.232C395.473 338.921 394.168 347.937 394.174 357C394.174 360.725 394.393 393.321 394.817 419.778C394.965 428.906 398.696 437.611 405.204 444.013C411.713 450.415 420.477 454.002 429.607 454H429.607C434.194 454 438.736 453.093 442.972 451.33C447.207 449.568 451.053 446.986 454.286 443.732C457.52 440.478 460.078 436.617 461.814 432.371C463.55 428.124 464.429 423.577 464.401 418.989C464.254 394.76 464.174 366.548 464.174 364.5C464.174 338.455 489.299 312.505 509.938 295.583C533.704 276.096 550.806 249.54 557.675 219.584C559.195 213.416 560.033 207.1 560.174 200.75C560.174 183.236 556.709 165.896 549.977 149.727C543.246 133.559 533.382 118.882 520.953 106.543C508.524 94.2039 493.777 84.446 477.56 77.8316C461.344 71.2171 443.978 67.8769 426.465 68.0035V68.0035Z" fill="#394555"/>
<path d="M337.947 228.038C328.997 228.037 320.414 224.481 314.086 218.153C307.758 211.825 304.203 203.242 304.202 194.292C304.202 188.188 304.206 183.522 304.216 182.858C304.5 161.951 309.765 141.414 319.574 122.949C303.458 145.012 294.596 171.538 294.216 198.858C294.206 199.522 294.202 204.188 294.202 210.292C294.203 219.242 297.758 227.825 304.086 234.153C310.414 240.481 318.997 244.037 327.947 244.038V244.038C335.301 244.035 342.453 241.632 348.316 237.194C354.18 232.756 358.435 226.525 360.434 219.448C354.256 224.988 346.246 228.048 337.947 228.038V228.038Z" fill="#3F3D56"/>
<path d="M428.753 139.109C439.099 139.603 449.171 142.601 458.103 147.845C467.035 153.089 474.562 160.423 480.036 169.216C485.509 178.01 488.767 188 489.53 198.33C490.292 208.66 488.536 219.021 484.412 228.522C490.377 221.517 494.761 213.308 497.266 204.454C499.77 195.601 500.337 186.312 498.926 177.22C497.515 168.128 494.16 159.447 489.09 151.769C484.02 144.091 477.354 137.596 469.547 132.728C461.74 127.86 452.974 124.732 443.849 123.558C434.723 122.385 425.452 123.193 416.667 125.927C407.881 128.661 399.789 133.258 392.941 139.403C386.094 145.548 380.652 153.098 376.986 161.537C383.321 154.084 391.284 148.186 400.259 144.298C409.234 140.409 418.983 138.634 428.753 139.109V139.109Z" fill="#3F3D56"/>
<path d="M439.134 438.038C430.005 438.04 421.24 434.453 414.732 428.051C408.223 421.649 404.493 412.944 404.345 403.816C403.921 377.36 403.702 344.764 403.702 341.038C403.696 331.976 405.001 322.96 407.575 314.27L407.563 314.267C409.084 309.906 410.92 305.661 413.057 301.566C406.496 310.311 401.274 319.984 397.563 330.267L397.575 330.27C395.001 338.96 393.696 347.976 393.702 357.038C393.702 360.764 393.921 393.36 394.345 419.816C394.493 428.944 398.223 437.649 404.732 444.051C411.24 450.453 420.005 454.04 429.134 454.038V454.038C436.662 454.037 443.986 451.595 450.009 447.079C456.031 442.563 460.427 436.216 462.536 428.99C456.139 434.823 447.791 438.05 439.134 438.038V438.038Z" fill="#3F3D56"/>
<path d="M421.258 582.78C414.723 579.934 408.94 575.608 404.363 570.144C399.787 564.68 396.543 558.227 394.888 551.294C393.232 544.362 393.211 537.139 394.825 530.197C396.439 523.255 399.644 516.782 404.188 511.291C398.92 515.137 394.53 520.06 391.31 525.733C388.09 531.406 386.113 537.698 385.511 544.193C384.908 550.688 385.695 557.237 387.817 563.405C389.939 569.573 393.349 575.219 397.82 579.969C402.291 584.718 407.721 588.462 413.75 590.953C419.779 593.443 426.268 594.623 432.788 594.413C439.307 594.204 445.708 592.611 451.564 589.738C457.421 586.866 462.599 582.782 466.757 577.755C460.273 582.494 452.66 585.452 444.677 586.333C436.694 587.215 428.62 585.99 421.258 582.78V582.78Z" fill="#3F3D56"/>
</svg>
